<svg width="290" height="48" viewBox="0 0 290 48" fill="none" xmlns="http://www.w3.org/2000/svg">
<path d="M167.024 9.44817H169.652C170.022 11.8462 170.163 13.2568 170.163 14.3853C170.163 16.6952 168.788 18 166.037 18C165.914 18 165.861 17.9295 165.861 17.806L165.878 15.408C165.878 15.2846 165.931 15.2317 166.055 15.2317C167.166 15.2317 167.553 14.7556 167.553 13.6447C167.553 12.8336 167.395 11.758 167.024 9.44817ZM166.443 6.55641L168.223 4.77551L170.022 6.55641L168.241 8.33731L166.443 6.55641Z" fill="url(#paint0_linear_413_1540)"/>
<path d="M151.282 11.4759H153.698C153.698 12.7983 153.575 13.9444 153.328 14.879C153.839 15.1082 154.368 15.2316 154.932 15.2316C155.655 15.2316 156.131 14.9848 156.396 14.491C156.696 13.9092 156.749 12.957 156.749 11.4759H159.182C159.182 12.4104 159.129 13.2391 159.005 13.9797C158.953 14.3324 158.9 14.6674 158.812 14.9671C159.252 15.1435 159.728 15.2316 160.204 15.2316C160.927 15.2316 161.404 14.9848 161.668 14.491C161.968 13.9092 162.021 12.957 162.021 11.4759V10.2416H164.454V11.4759C164.454 12.4104 164.401 13.2391 164.278 13.9797C164.242 14.2442 164.189 14.5087 164.137 14.7555C164.366 14.879 164.613 14.9848 164.842 15.0553C165.23 15.1787 165.635 15.2316 166.041 15.2316C166.164 15.2316 166.217 15.2845 166.217 15.4079V17.806C166.217 17.9294 166.164 17.9999 166.041 17.9999C164.983 17.9999 164.048 17.5768 163.22 16.748C163.026 17.0125 162.797 17.2417 162.532 17.4357C162.021 17.806 161.386 17.9999 160.61 17.9999C159.693 17.9999 158.97 17.6473 158.053 17.0478L157.842 16.8891C157.665 17.083 157.471 17.277 157.26 17.4357C156.749 17.806 156.114 17.9999 155.338 17.9999C154.421 17.9999 153.698 17.6473 152.781 17.0478L152.464 16.8186C152.27 17.0654 152.058 17.277 151.794 17.4533C151.247 17.8236 150.559 17.9999 149.713 17.9999C149.59 17.9999 149.537 17.9294 149.537 17.806V15.4079C149.537 15.2845 149.59 15.2316 149.713 15.2316C150.33 15.2316 150.683 14.9848 150.912 14.491C151.177 13.9092 151.282 12.957 151.282 11.4759Z" fill="url(#paint1_linear_413_1540)"/>
<path d="M141.94 9.14842C144.426 9.14842 145.695 11.4583 148.904 12.2341L148.164 14.9143C148.305 15.0025 148.481 15.073 148.675 15.1259C148.94 15.1964 149.292 15.2317 149.716 15.2317C149.839 15.2317 149.892 15.2846 149.892 15.408V17.8061C149.892 17.9295 149.839 18 149.716 18C148.675 18 147.882 17.7179 147.3 17.1713C146.841 16.7305 146.559 16.1486 146.471 15.3904C146.454 15.408 146.436 15.408 146.418 15.408C143.967 16.3249 143.139 18 138.607 18C138.484 18 138.413 17.9295 138.413 17.8061V15.408C138.413 15.2846 138.484 15.2317 138.607 15.2317C142.327 15.2317 143.562 14.4382 145.343 13.7329L145.748 13.5742C145.413 13.4332 145.131 13.2921 144.884 13.1687C143.615 12.4634 142.786 11.8462 141.552 11.8462C141.005 11.8462 140.353 11.9873 139.612 12.2694V9.88899C140.388 9.39527 141.164 9.14842 141.94 9.14842ZM141.428 6.23903L143.209 4.45813L145.008 6.23903L143.227 8.01993L141.428 6.23903Z" fill="url(#paint2_linear_413_1540)"/>
<path d="M134.956 8.51358H137.583V14.1737C137.583 14.879 137.883 15.2316 138.606 15.2316C138.729 15.2316 138.782 15.2845 138.782 15.408V17.806C138.782 17.9294 138.729 18 138.606 18C137.425 18 136.543 17.7355 135.961 17.1889C135.555 17.4004 135.203 17.5768 134.868 17.7002C134.392 17.8942 133.88 18 133.351 18C130.936 18 129.507 16.6422 129.507 14.3676C129.507 12.622 130.671 10.894 133.069 9.94183C133.616 9.7126 134.251 9.53628 134.956 9.41285V8.51358ZM133.069 12.3222C132.364 12.7983 132.011 13.3802 132.011 14.0679C132.011 14.8437 132.505 15.3374 133.404 15.3374C133.916 15.3374 134.445 15.2493 134.991 15.0553C134.974 14.8261 134.956 14.5792 134.956 14.3324V11.5817C134.198 11.7404 133.563 11.9872 133.069 12.3222ZM132.699 5.58656L134.462 3.80566L135.82 5.12811L137.16 3.80566L138.959 5.58656L137.195 7.34983L135.838 6.04501L134.497 7.34983L132.699 5.58656Z" fill="url(#paint3_linear_413_1540)"/>
<path d="M121.287 10.2416H123.914C124.249 12.622 124.496 15.2669 124.496 17.6121C124.496 20.5038 122.786 21.791 119.594 21.791V19.5517C120.917 19.5517 121.957 18.9345 121.957 17.471C121.957 15.3375 121.622 13.01 121.287 10.2416ZM120.705 7.22646L122.486 5.44556L124.285 7.22646L122.504 9.00735L120.705 7.22646Z" fill="url(#paint4_linear_413_1540)"/>
<path d="M114.764 9.44812H117.427C118.467 11.6169 119.066 13.5565 119.066 14.7556C119.066 16.8186 117.832 18 115.522 18C114.27 18 113.159 17.8236 111.625 17.4533V14.7732C113.336 15.1435 113.935 15.2316 114.852 15.2316C115.981 15.2316 116.457 14.9319 116.457 14.2795C116.457 13.6447 115.963 11.9343 114.764 9.44812Z" fill="url(#paint5_linear_413_1540)"/>
<path d="M103.908 5.21631H106.535V18H103.908V5.21631Z" fill="url(#paint6_linear_413_1540)"/>
<path d="M98.0114 4.33464H100.639V7.89643C100.639 8.86623 100.462 9.74786 100.11 10.5413C99.9686 10.8411 99.8099 11.1408 99.6512 11.423L100.639 12.3222C101.591 13.2039 102.067 14.1031 102.067 15.0024C102.067 16.6422 101.009 17.9999 98.6991 17.9999H93.1448L91.9458 15.2316C94.0793 14.156 95.5957 13.2039 96.5831 12.0754C96.6713 11.9872 96.7418 11.8814 96.83 11.7756L92.1397 7.59668L92.2103 7.42035H95.296L97.8174 9.73023C97.9409 9.18362 98.0114 8.56648 98.0114 7.89643V4.33464ZM96.83 14.35C96.3539 14.685 95.8955 14.9671 95.4194 15.2316H98.6109C99.1575 15.2316 99.3867 15.0024 99.3867 14.5968C99.3867 14.2266 99.0341 13.7152 98.3464 13.0981C97.8703 13.5565 97.3766 13.9797 96.83 14.35ZM94.4672 5.00468H96.1071L95.7544 6.43292H92.8098C92.4042 6.43292 92.1044 6.45056 91.4873 6.64452V5.25154C91.7871 5.14574 92.0163 5.07521 92.1926 5.05758C92.2808 5.03994 92.3866 5.02231 92.4924 5.02231C92.2279 4.77545 92.1045 4.45807 92.1045 4.08778C92.1045 3.17088 92.8627 2.46558 93.8501 2.46558C94.4849 2.46558 95.0667 2.62427 95.437 2.81823V4.17594C94.9257 3.98198 94.5907 3.91145 94.2909 3.91145C93.8854 3.91145 93.568 4.12305 93.568 4.45807C93.568 4.82835 93.9911 5.00468 94.4672 5.00468Z" fill="url(#paint7_linear_413_1540)"/>
<path d="M84.5818 9.14844C87.068 9.14844 88.3375 11.4583 91.5467 12.2342L90.7885 14.9672C86.7858 15.602 86.68 18 81.2492 18C81.1258 18 81.0552 17.9295 81.0552 17.8061V15.408C81.0552 15.2846 81.1258 15.2317 81.2492 15.2317C84.9697 15.2317 86.204 14.4382 87.9849 13.7329L88.3904 13.5742C88.0554 13.4332 87.7733 13.2921 87.5264 13.1687C86.2569 12.4634 85.4281 11.8462 84.1938 11.8462C83.6472 11.8462 82.9948 11.9873 82.2543 12.2694V9.88901C83.0301 9.39529 83.8059 9.14844 84.5818 9.14844Z" fill="url(#paint8_linear_413_1540)"/>
<path d="M72.4513 17.4004V14.7203C73.9148 15.1435 74.673 15.2316 75.6428 15.2316C76.1189 15.2316 76.5773 15.1964 76.9829 15.1435L77.4061 15.0729L77.3708 14.9319C76.93 13.6447 76.4715 11.6522 76.066 9.44812H78.7285C79.0106 11.3348 79.2222 12.6044 79.5573 13.6623C79.857 14.7027 80.4213 15.2316 81.2324 15.2316C81.3558 15.2316 81.4087 15.2845 81.4087 15.408V17.806C81.4087 17.9294 81.3558 18 81.2324 18C80.3155 18 79.522 17.7355 78.8696 17.2241C78.7814 17.1536 78.6933 17.0831 78.6051 16.9949C78.129 17.2947 77.6882 17.5239 77.265 17.6826C76.7008 17.8765 76.0836 17.9823 75.4136 17.9823C74.3027 17.9823 73.6856 17.8236 72.4513 17.4004Z" fill="url(#paint9_linear_413_1540)"/>
<path d="M58.7264 11.1585H61.1244C60.9305 11.9872 60.8776 12.5515 60.8776 13.0628C60.8776 14.5263 61.5476 15.2316 63.5754 15.2316H67.5075C67.6309 15.2316 67.6838 15.2845 67.6838 15.408V17.806C67.6838 17.9294 67.6309 18 67.5075 18H62.9406C59.9078 18 58.409 16.5188 58.409 13.7152C58.409 12.8865 58.4972 12.1988 58.7264 11.1585ZM68.442 9.44811H71.0692C71.4395 11.8462 71.5806 13.2568 71.5806 14.3853C71.5806 16.6951 70.2052 18 67.4545 18C67.3311 18 67.2782 17.9294 67.2782 17.806L67.2959 15.408C67.2959 15.2845 67.3488 15.2316 67.4722 15.2316C68.583 15.2316 68.971 14.7555 68.971 13.6447C68.971 12.8336 68.8123 11.758 68.442 9.44811ZM61.6181 8.33726L63.3814 6.53873L64.7744 7.93171L66.1674 6.53873L67.9483 8.33726L66.185 10.1182L64.7744 8.74281L63.399 10.1182L61.6181 8.33726ZM63.5577 5.86868L64.7744 4.6344L66.0263 5.86868L64.792 7.10297L63.5577 5.86868Z" fill="url(#paint10_linear_413_1540)"/>
<path d="M50.2295 5.21631H53.0155V19.5869H50.2295V5.21631Z" fill="url(#paint11_linear_413_1540)"/>
<path d="M37.4962 13.8035C37.4962 15.1964 38.3073 16.0781 39.5769 16.0781C40.8464 16.0781 41.6047 15.1964 41.6047 13.8035C41.6047 12.4634 40.8464 11.5288 39.5769 11.5288C38.3073 11.5288 37.4962 12.3928 37.4962 13.8035ZM39.7532 7.10305C38.4131 7.10305 37.4081 8.10811 37.461 10.2769C38.0958 9.71268 38.9421 9.34239 40.2117 9.34239C42.5215 9.34239 44.5846 11.1938 44.5846 13.8035C44.5846 16.5013 42.4863 18.2293 39.5769 18.2293C35.9446 18.2293 34.4282 15.4609 34.4282 11.9168C34.4282 8.17864 36.0151 5.00476 39.9119 5.00476C42.8742 5.00476 44.3024 6.66223 44.4435 8.68999H41.587C41.446 7.49097 40.6701 7.10305 39.7532 7.10305Z" fill="url(#paint12_linear_413_1540)"/>
<path d="M28.5326 5.00476C31.2128 5.00476 33.1524 6.32721 33.1524 8.60182C33.1524 11.282 30.8602 13.4508 27.0868 15.6196H33.2053V18H23.3839V15.6196C26.8223 13.1158 30.2254 10.8764 30.2254 8.77815C30.2254 7.66729 29.4143 7.15595 28.4445 7.15595C27.4218 7.15595 26.3109 7.77309 26.3991 9.81848H23.525C23.4368 6.78566 25.5704 5.00476 28.5326 5.00476Z" fill="url(#paint13_linear_413_1540)"/>
<path d="M16.6691 18.2293C13.072 18.2293 11.1853 15.6725 11.1853 11.5817C11.1853 7.5086 13.072 5.00476 16.6691 5.00476C20.2485 5.00476 22.1352 7.5086 22.1352 11.5817C22.1352 15.6725 20.2485 18.2293 16.6691 18.2293ZM16.6691 16.0781C18.1502 16.0781 19.1553 14.6851 19.1553 11.5817C19.1553 8.49603 18.1502 7.15595 16.6691 7.15595C15.1703 7.15595 14.1652 8.49603 14.1652 11.5817C14.1652 14.6851 15.1703 16.0781 16.6691 16.0781Z" fill="url(#paint14_linear_413_1540)"/>
<path d="M5.14874 5.00476C7.8289 5.00476 9.76849 6.32721 9.76849 8.60182C9.76849 11.282 7.47625 13.4508 3.70286 15.6196H9.82139V18H0V15.6196C3.43837 13.1158 6.84147 10.8764 6.84147 8.77815C6.84147 7.66729 6.03037 7.15595 5.06057 7.15595C4.03788 7.15595 2.92702 7.77309 3.01518 9.81848H0.141061C0.052898 6.78566 2.18645 5.00476 5.14874 5.00476Z" fill="url(#paint15_linear_413_1540)"/>
<path d="M162.133 37.7858C162.133 40.2543 163.808 41.5944 165.801 41.5944C167.952 41.5944 169.486 40.0604 169.486 37.9621C169.486 35.6169 168.022 34.1534 165.818 34.1534C163.473 34.1534 162.133 35.8285 162.133 37.7858ZM165.977 29.6042C163.614 29.6042 161.869 31.5614 161.921 36.287C162.398 34.6824 163.808 33.501 165.906 33.501C168.446 33.501 170.209 35.2819 170.209 37.9268C170.209 40.3249 168.498 42.2292 165.801 42.2292C163.191 42.2292 161.216 40.5893 161.216 36.1988C161.216 31.7025 162.803 28.9871 166.1 28.9871C168.393 28.9871 169.627 30.2742 169.944 31.9493H169.186C168.851 30.3271 167.67 29.6042 165.977 29.6042Z" fill="url(#paint16_linear_413_1540)"/>
<path d="M155.532 28.9871C157.789 28.9871 159.358 30.1861 159.358 32.3196C159.358 35.1232 156.714 37.7858 151.9 41.3299H159.782V42H150.965V41.3123C155.973 37.5918 158.618 34.9645 158.618 32.3725C158.618 30.4858 157.19 29.6042 155.532 29.6042C153.804 29.6042 152.147 30.4153 152.006 33.0955H151.283C151.424 30.3095 153.152 28.9871 155.532 28.9871Z" fill="url(#paint17_linear_413_1540)"/>
<path d="M144.582 42.2292C141.179 42.2292 139.645 39.5138 139.645 35.5993C139.645 31.7025 141.179 28.9871 144.582 28.9871C147.932 28.9871 149.484 31.7025 149.484 35.5993C149.484 39.5138 147.932 42.2292 144.582 42.2292ZM144.582 41.5944C147.121 41.5944 148.743 39.5667 148.743 35.5993C148.743 31.6496 147.121 29.6042 144.582 29.6042C142.025 29.6042 140.385 31.6496 140.385 35.5993C140.385 39.5667 142.025 41.5944 144.582 41.5944Z" fill="url(#paint18_linear_413_1540)"/>
<path d="M133.767 28.9871C136.024 28.9871 137.593 30.1861 137.593 32.3196C137.593 35.1232 134.948 37.7858 130.134 41.3299H138.016V42H129.2V41.3123C134.208 37.5918 136.853 34.9645 136.853 32.3725C136.853 30.4858 135.424 29.6042 133.767 29.6042C132.039 29.6042 130.381 30.4153 130.24 33.0955H129.517C129.658 30.3095 131.386 28.9871 133.767 28.9871Z" fill="url(#paint19_linear_413_1540)"/>
<path d="M122.284 29.2163H122.971V43.5869H122.284V29.2163Z" fill="url(#paint20_linear_413_1540)"/>
<path d="M115.059 35.5993C115.059 30.6093 111.921 29.8687 108.817 29.8687H106.631V41.3299H108.817C111.921 41.3299 115.059 40.5894 115.059 35.5993ZM105.908 29.2163H108.888C112.961 29.2163 115.835 30.6798 115.835 35.5993C115.835 40.5365 112.961 42 108.888 42H105.908V29.2163Z" fill="url(#paint21_linear_413_1540)"/>
<path d="M102.877 29.2163V42H102.154V29.2163H102.877Z" fill="url(#paint22_linear_413_1540)"/>
<path d="M99.9099 29.2163V29.8687L91.3581 41.3123H100.139V42H90.4941V41.3299L99.0283 29.904H91.1641V29.2163H99.9099Z" fill="url(#paint23_linear_413_1540)"/>
<path d="M77.5991 29.2163L80.8964 40.9597L84.3171 29.2163H85.1106L81.2491 42H80.4909L77.1936 30.3801L73.9139 42H73.1557L69.2765 29.2163H70.07L73.5436 40.9597L76.788 29.2163H77.5991Z" fill="url(#paint24_linear_413_1540)"/>
<path d="M60.1044 42V29.2163H68.1097V29.904H60.8274V35.0351H67.6688V35.7051H60.8274V41.3123H68.1097V42H60.1044Z" fill="url(#paint25_linear_413_1540)"/>
<path d="M57.0773 42H56.1075L48.1023 30.1156V42H47.3793V29.2163H48.3491L56.3544 41.1007V29.2163H57.0773V42Z" fill="url(#paint26_linear_413_1540)"/>
<g clip-path="url(#clip0_413_1540)">
<path d="M204.191 37.3886H186.962V30.5537H201.935C203.47 30.5537 203.951 30.1736 203.951 28.6088V25.4769C203.951 19.7823 202.366 18.0263 196.608 18.0263H191.81V11.1914H196.608C207.167 11.1914 210.669 15.0367 210.669 25.4769V30.936C210.669 34.7324 208.03 37.3908 204.189 37.3908L204.191 37.3886Z" fill="url(#paint27_linear_413_1540)"/>
<path d="M225.437 17.1217V32.5942C225.437 40.1893 219.679 46.5952 211.999 46.5952V39.5713C215.838 39.5713 218.717 36.3906 218.717 32.5942V17.1217H225.435H225.437ZM222.03 15.0323C224.093 15.0323 225.869 13.3719 225.869 11.2359C225.869 9.09984 224.093 7.43945 222.03 7.43945C219.967 7.43945 218.191 9.19541 218.191 11.2359C218.191 13.2764 219.87 15.0323 222.03 15.0323Z" fill="url(#paint28_linear_413_1540)"/>
<path fill-rule="evenodd" clip-rule="evenodd" d="M264.889 4.29211C263.641 4.29211 262.639 5.28345 262.639 6.51707C262.639 9.01764 263.437 11.4404 264.889 13.4498C266.34 11.4404 267.138 9.01542 267.138 6.51707C267.138 5.28345 266.136 4.29211 264.889 4.29211ZM267.887 16.6439C270.199 13.7832 271.478 10.2135 271.478 6.51707C271.478 2.82065 268.532 0 264.889 0C261.245 0 258.299 2.91401 258.299 6.51707C258.299 10.1201 259.58 13.7854 261.89 16.6439L257.451 21.0338C254.559 18.7466 250.949 17.4818 247.212 17.4818C243.474 17.4818 240.622 20.3958 240.622 23.9989C240.622 27.6019 243.568 30.516 247.212 30.516C250.855 30.516 254.561 29.249 257.451 26.964L261.89 31.3539C259.578 34.2146 258.299 37.7843 258.299 41.4807C258.299 45.1771 261.245 47.9978 264.889 47.9978C268.532 47.9978 271.478 45.0838 271.478 41.4807C271.478 37.8777 270.197 34.2124 267.887 31.3539L272.326 26.964C275.218 29.2512 278.828 30.516 282.565 30.516C286.303 30.516 289.155 27.6019 289.155 23.9989C289.155 20.3958 286.209 17.4818 282.565 17.4818C278.922 17.4818 275.216 18.7488 272.326 21.0338L267.887 16.6439ZM264.889 19.7512L260.591 24.0011L264.889 28.251L269.186 24.0011L264.889 19.7512ZM275.555 23.9989C277.587 25.4348 280.039 26.2239 282.565 26.2239C283.813 26.2239 284.815 25.2325 284.815 23.9989C284.815 22.7653 283.813 21.7739 282.565 21.7739C280.037 21.7739 277.587 22.563 275.555 23.9989ZM264.889 34.548C263.437 36.5574 262.639 38.9824 262.639 41.4807C262.639 42.7143 263.641 43.7057 264.889 43.7057C266.136 43.7057 267.138 42.7143 267.138 41.4807C267.138 38.9801 266.34 36.5574 264.889 34.548ZM254.222 23.9989C252.19 22.563 249.738 21.7739 247.212 21.7739C245.964 21.7739 244.962 22.7653 244.962 23.9989C244.962 25.2325 245.964 26.2239 247.212 26.2239C249.74 26.2239 252.19 25.4348 254.222 23.9989Z" fill="url(#paint29_linear_413_1540)"/>
</g>
<defs>
<linearGradient id="paint0_linear_413_1540" x1="170.962" y1="12" x2="-1.0382" y2="12" gradientUnits="userSpaceOnUse">
<stop stop-color="white"/>
<stop offset="1" stop-color="#99A1AF"/>
</linearGradient>
<linearGradient id="paint1_linear_413_1540" x1="170.962" y1="12" x2="-1.03821" y2="12" gradientUnits="userSpaceOnUse">
<stop stop-color="white"/>
<stop offset="1" stop-color="#99A1AF"/>
</linearGradient>
<linearGradient id="paint2_linear_413_1540" x1="170.962" y1="12" x2="-1.0382" y2="12" gradientUnits="userSpaceOnUse">
<stop stop-color="white"/>
<stop offset="1" stop-color="#99A1AF"/>
</linearGradient>
<linearGradient id="paint3_linear_413_1540" x1="170.962" y1="12" x2="-1.03821" y2="12" gradientUnits="userSpaceOnUse">
<stop stop-color="white"/>
<stop offset="1" stop-color="#99A1AF"/>
</linearGradient>
<linearGradient id="paint4_linear_413_1540" x1="170.962" y1="12" x2="-1.03821" y2="12" gradientUnits="userSpaceOnUse">
<stop stop-color="white"/>
<stop offset="1" stop-color="#99A1AF"/>
</linearGradient>
<linearGradient id="paint5_linear_413_1540" x1="170.962" y1="12" x2="-1.03821" y2="12" gradientUnits="userSpaceOnUse">
<stop stop-color="white"/>
<stop offset="1" stop-color="#99A1AF"/>
</linearGradient>
<linearGradient id="paint6_linear_413_1540" x1="170.962" y1="12" x2="-1.03821" y2="12" gradientUnits="userSpaceOnUse">
<stop stop-color="white"/>
<stop offset="1" stop-color="#99A1AF"/>
</linearGradient>
<linearGradient id="paint7_linear_413_1540" x1="170.962" y1="12" x2="-1.03821" y2="12" gradientUnits="userSpaceOnUse">
<stop stop-color="white"/>
<stop offset="1" stop-color="#99A1AF"/>
</linearGradient>
<linearGradient id="paint8_linear_413_1540" x1="170.962" y1="12" x2="-1.03821" y2="12" gradientUnits="userSpaceOnUse">
<stop stop-color="white"/>
<stop offset="1" stop-color="#99A1AF"/>
</linearGradient>
<linearGradient id="paint9_linear_413_1540" x1="170.962" y1="12" x2="-1.03821" y2="12" gradientUnits="userSpaceOnUse">
<stop stop-color="white"/>
<stop offset="1" stop-color="#99A1AF"/>
</linearGradient>
<linearGradient id="paint10_linear_413_1540" x1="170.962" y1="12" x2="-1.0382" y2="12" gradientUnits="userSpaceOnUse">
<stop stop-color="white"/>
<stop offset="1" stop-color="#99A1AF"/>
</linearGradient>
<linearGradient id="paint11_linear_413_1540" x1="170.962" y1="12" x2="-1.03821" y2="12" gradientUnits="userSpaceOnUse">
<stop stop-color="white"/>
<stop offset="1" stop-color="#99A1AF"/>
</linearGradient>
<linearGradient id="paint12_linear_413_1540" x1="170.962" y1="12" x2="-1.03821" y2="12" gradientUnits="userSpaceOnUse">
<stop stop-color="white"/>
<stop offset="1" stop-color="#99A1AF"/>
</linearGradient>
<linearGradient id="paint13_linear_413_1540" x1="170.962" y1="12" x2="-1.03821" y2="12" gradientUnits="userSpaceOnUse">
<stop stop-color="white"/>
<stop offset="1" stop-color="#99A1AF"/>
</linearGradient>
<linearGradient id="paint14_linear_413_1540" x1="170.962" y1="12" x2="-1.03821" y2="12" gradientUnits="userSpaceOnUse">
<stop stop-color="white"/>
<stop offset="1" stop-color="#99A1AF"/>
</linearGradient>
<linearGradient id="paint15_linear_413_1540" x1="170.962" y1="12" x2="-1.03821" y2="12" gradientUnits="userSpaceOnUse">
<stop stop-color="white"/>
<stop offset="1" stop-color="#99A1AF"/>
</linearGradient>
<linearGradient id="paint16_linear_413_1540" x1="170.962" y1="36" x2="44.9618" y2="36" gradientUnits="userSpaceOnUse">
<stop stop-color="white"/>
<stop offset="1" stop-color="#99A1AF"/>
</linearGradient>
<linearGradient id="paint17_linear_413_1540" x1="170.962" y1="36" x2="44.9618" y2="36" gradientUnits="userSpaceOnUse">
<stop stop-color="white"/>
<stop offset="1" stop-color="#99A1AF"/>
</linearGradient>
<linearGradient id="paint18_linear_413_1540" x1="170.962" y1="36" x2="44.9618" y2="36" gradientUnits="userSpaceOnUse">
<stop stop-color="white"/>
<stop offset="1" stop-color="#99A1AF"/>
</linearGradient>
<linearGradient id="paint19_linear_413_1540" x1="170.962" y1="36" x2="44.9618" y2="36" gradientUnits="userSpaceOnUse">
<stop stop-color="white"/>
<stop offset="1" stop-color="#99A1AF"/>
</linearGradient>
<linearGradient id="paint20_linear_413_1540" x1="170.962" y1="36" x2="44.9618" y2="36" gradientUnits="userSpaceOnUse">
<stop stop-color="white"/>
<stop offset="1" stop-color="#99A1AF"/>
</linearGradient>
<linearGradient id="paint21_linear_413_1540" x1="170.962" y1="36" x2="44.9618" y2="36" gradientUnits="userSpaceOnUse">
<stop stop-color="white"/>
<stop offset="1" stop-color="#99A1AF"/>
</linearGradient>
<linearGradient id="paint22_linear_413_1540" x1="170.962" y1="36" x2="44.9618" y2="36" gradientUnits="userSpaceOnUse">
<stop stop-color="white"/>
<stop offset="1" stop-color="#99A1AF"/>
</linearGradient>
<linearGradient id="paint23_linear_413_1540" x1="170.962" y1="36" x2="44.9618" y2="36" gradientUnits="userSpaceOnUse">
<stop stop-color="white"/>
<stop offset="1" stop-color="#99A1AF"/>
</linearGradient>
<linearGradient id="paint24_linear_413_1540" x1="170.962" y1="36" x2="44.9618" y2="36" gradientUnits="userSpaceOnUse">
<stop stop-color="white"/>
<stop offset="1" stop-color="#99A1AF"/>
</linearGradient>
<linearGradient id="paint25_linear_413_1540" x1="170.962" y1="36" x2="44.9618" y2="36" gradientUnits="userSpaceOnUse">
<stop stop-color="white"/>
<stop offset="1" stop-color="#99A1AF"/>
</linearGradient>
<linearGradient id="paint26_linear_413_1540" x1="170.962" y1="36" x2="44.9618" y2="36" gradientUnits="userSpaceOnUse">
<stop stop-color="white"/>
<stop offset="1" stop-color="#99A1AF"/>
</linearGradient>
<linearGradient id="paint27_linear_413_1540" x1="198.747" y1="-1.83332" x2="224.816" y2="21.7558" gradientUnits="userSpaceOnUse">
<stop stop-color="white"/>
<stop offset="1" stop-color="#99A1AF"/>
</linearGradient>
<linearGradient id="paint28_linear_413_1540" x1="218.894" y1="-12.0264" x2="243.541" y2="-3.29608" gradientUnits="userSpaceOnUse">
<stop stop-color="white"/>
<stop offset="1" stop-color="#99A1AF"/>
</linearGradient>
<linearGradient id="paint29_linear_413_1540" x1="264.75" y1="-23.8615" x2="312.744" y2="24.6689" gradientUnits="userSpaceOnUse">
<stop stop-color="white"/>
<stop offset="1" stop-color="#99A1AF"/>
</linearGradient>
<clipPath id="clip0_413_1540">
<rect width="102.194" height="48" fill="white" transform="translate(186.962)"/>
</clipPath>
</defs>
</svg>
