<svg preserveAspectRatio="none" width="100%" height="100%" overflow="visible" style="display: block;" viewBox="0 0 102.194 47.9978" fill="none" xmlns="http://www.w3.org/2000/svg">
<g id="Group">
<g id="Group_2">
<path id="Vector" d="M17.2297 37.3887H0V30.5537H14.9731C16.5082 30.5537 16.9892 30.1737 16.9892 28.6089V25.477C16.9892 19.7824 15.4047 18.0264 9.64646 18.0264H4.84795V11.1915H9.64646C20.2054 11.1915 23.7071 15.0368 23.7071 25.477V30.9361C23.7071 34.7325 21.0685 37.3909 17.2274 37.3909L17.2297 37.3887Z" fill="url(#paint0_linear_16_227)"/>
<path id="Vector_2" d="M38.4757 17.1217V32.5942C38.4757 40.1893 32.7175 46.5952 25.0376 46.5952V39.5714C28.8764 39.5714 31.7555 36.3906 31.7555 32.5942V17.1217H38.4734H38.4757ZM35.0684 15.0324C37.1317 15.0324 38.9072 13.372 38.9072 11.2359C38.9072 9.09988 37.1317 7.4395 35.0684 7.4395C33.0052 7.4395 31.2296 9.19546 31.2296 11.2359C31.2296 13.2764 32.9085 15.0324 35.0684 15.0324Z" fill="url(#paint1_linear_16_227)"/>
</g>
<path id="Vector_3" fill-rule="evenodd" clip-rule="evenodd" d="M77.9268 4.29211C76.6794 4.29211 75.677 5.28345 75.677 6.51707C75.677 9.01764 76.4749 11.4404 77.9268 13.4498C79.3787 11.4404 80.1766 9.01542 80.1766 6.51707C80.1766 5.28345 79.1742 4.29211 77.9268 4.29211ZM80.925 16.6439C83.2378 13.7832 84.5166 10.2135 84.5166 6.51707C84.5166 2.82065 81.5701 0 77.9268 0C74.2836 0 71.337 2.91401 71.337 6.51707C71.337 10.1201 72.6181 13.7854 74.9286 16.6439L70.4897 21.0338C67.5971 18.7466 63.9876 17.4818 60.2499 17.4818C56.5122 17.4818 53.6601 20.3958 53.6601 23.9989C53.6601 27.6019 56.6066 30.516 60.2499 30.516C63.8932 30.516 67.5994 29.249 70.4897 26.964L74.9286 31.3539C72.6159 34.2146 71.337 37.7843 71.337 41.4807C71.337 45.1771 74.2836 47.9978 77.9268 47.9978C81.5701 47.9978 84.5166 45.0838 84.5166 41.4807C84.5166 37.8777 83.2355 34.2124 80.925 31.3539L85.3639 26.964C88.2565 29.2512 91.8661 30.516 95.6038 30.516C99.3414 30.516 102.194 27.6019 102.194 23.9989C102.194 20.3958 99.247 17.4818 95.6038 17.4818C91.9605 17.4818 88.2543 18.7488 85.3639 21.0338L80.925 16.6439ZM77.9268 19.7512L73.6295 24.0011L77.9268 28.251L82.2241 24.0011L77.9268 19.7512ZM88.5937 23.9989C90.6254 25.4348 93.0775 26.2239 95.6038 26.2239C96.8511 26.2239 97.8535 25.2325 97.8535 23.9989C97.8535 22.7653 96.8511 21.7739 95.6038 21.7739C93.0753 21.7739 90.6254 22.563 88.5937 23.9989ZM77.9268 34.548C76.4749 36.5574 75.677 38.9824 75.677 41.4807C75.677 42.7143 76.6794 43.7057 77.9268 43.7057C79.1742 43.7057 80.1766 42.7143 80.1766 41.4807C80.1766 38.9801 79.3787 36.5574 77.9268 34.548ZM67.26 23.9989C65.2282 22.563 62.7761 21.7739 60.2499 21.7739C59.0025 21.7739 58.0001 22.7653 58.0001 23.9989C58.0001 25.2325 59.0025 26.2239 60.2499 26.2239C62.7784 26.2239 65.2282 25.4348 67.26 23.9989Z" fill="url(#paint2_linear_16_227)"/>
</g>
<defs>
<linearGradient id="paint0_linear_16_227" x1="11.7857" y1="-1.83325" x2="37.8547" y2="21.7559" gradientUnits="userSpaceOnUse">
<stop stop-color="white"/>
<stop offset="1" stop-color="#99A1AF"/>
</linearGradient>
<linearGradient id="paint1_linear_16_227" x1="31.9327" y1="-12.0263" x2="56.5795" y2="-3.29603" gradientUnits="userSpaceOnUse">
<stop stop-color="white"/>
<stop offset="1" stop-color="#99A1AF"/>
</linearGradient>
<linearGradient id="paint2_linear_16_227" x1="77.7879" y1="-23.8615" x2="125.783" y2="24.6689" gradientUnits="userSpaceOnUse">
<stop stop-color="white"/>
<stop offset="1" stop-color="#99A1AF"/>
</linearGradient>
</defs>
</svg>
